<svg xmlns="http://www.w3.org/2000/svg" version="1.1" xmlns:xlink="http://www.w3.org/1999/xlink" xmlns:svgjs="http://svgjs.dev/svgjs" width="2000" height="454" viewBox="0 0 2000 454"><g transform="matrix(1,0,0,1,-1.2121212121212466,-0.06030421472405578)"><svg viewBox="0 0 396 90" data-background-color="#ffffff" preserveAspectRatio="xMidYMid meet" height="454" width="2000" xmlns="http://www.w3.org/2000/svg" xmlns:xlink="http://www.w3.org/1999/xlink"><g id="tight-bounds" transform="matrix(1,0,0,1,0.2400000000000091,0.011954580011376947)"><svg viewBox="0 0 395.52 89.97609083997722" height="89.97609083997722" width="395.52"><g><svg viewBox="0 0 539.111233437131 122.64138681379313" height="89.97609083997722" width="395.52"><g transform="matrix(1,0,0,1,143.59123343713105,16.949714096551737)"><svg viewBox="0 0 395.52 88.74195862068966" height="88.74195862068966" width="395.52"><g id="textblocktransform"><svg viewBox="0 0 395.52 88.74195862068966" height="88.74195862068966" width="395.52" id="textblock"><g><svg viewBox="0 0 395.52 88.74195862068966" height="88.74195862068966" width="395.52"><g transform="matrix(1,0,0,1,0,0)"><svg width="395.52" viewBox="1.45 -34.85 217.48000000000002 48.8" height="88.74195862068966" data-palette-color="#2257bf"><path d="M6.45-30.65Q6.25-31.3 5.83-31.65 5.4-32 4.85-32L4.85-32Q4.55-32 4.4-31.95L4.4-31.95Q3.7-31.65 3.6-31.35L3.6-31.35 1.45-32.95Q1.95-34.05 3.65-34.65L3.65-34.65Q4.25-34.85 5.05-34.85L5.05-34.85Q6.45-34.85 7.6-33.98 8.75-33.1 9.25-31.5L9.25-31.5 17.8-5 18-3.95 18.25-5 27.65-34.25 30.6-34.25 40-5 40.3-3.6 40.45-5 49.85-34.25 52.85-34.25 41.7 0 38.75 0 29.1-29.55 19.5 0 16.55 0 6.45-30.65ZM65.2 0.5Q61.75 0.5 59.3-1.25 56.85-3 55.6-5.9 54.35-8.8 54.35-12.3L54.35-12.3Q54.35-16.15 55.85-19.13 57.35-22.1 60.15-23.75 62.95-25.4 66.7-25.4L66.7-25.4Q67.85-25.4 69.6-25.28 71.35-25.15 72.7-24.95L72.7-24.95 75.7-24.95 75.7-4.3Q75.7-3.3 76.17-2.78 76.65-2.25 77.35-2.25L77.35-2.25Q78.25-2.25 78.8-3.1L78.8-3.1 80.95-1.4Q80.2-0.35 79.27 0.08 78.35 0.5 77.15 0.5L77.15 0.5Q75.4 0.5 74.07-0.7 72.75-1.9 72.75-3.6L72.75-3.6Q71.55-1.6 69.6-0.55 67.65 0.5 65.2 0.5L65.2 0.5ZM65.25-2.2Q67.5-2.2 69.3-3.3 71.1-4.4 72-6.2L72-6.2Q72.7-7.65 72.7-9.4L72.7-9.4 72.7-22.5 69.4-22.6 66.5-22.7Q61.95-22.7 59.65-19.85 57.35-17 57.35-12.4L57.35-12.4Q57.35-8.15 59.37-5.18 61.4-2.2 65.25-2.2L65.25-2.2ZM91.3 0.5Q87.9 0.5 86.3-1.43 84.7-3.35 84.7-7.2L84.7-7.2 84.7-31.25 87.7-31.25 87.7-24.9 95.55-24.9 95.55-22.2 87.7-22.2 87.7-7.2Q87.7-2.2 91.3-2.2L91.3-2.2Q94.15-2.2 95.7-5.25L95.7-5.25 97.95-3.7Q96.8-1.6 95.2-0.55 93.6 0.5 91.3 0.5L91.3 0.5ZM111.64 0.5Q107.89 0.5 105.29-1.05 102.69-2.6 101.37-5.33 100.04-8.05 100.04-11.5L100.04-11.5Q100.04-14.9 101.32-18.1 102.59-21.3 105.17-23.35 107.74-25.4 111.44-25.4L111.44-25.4Q113.89-25.4 115.99-24.45 118.09-23.5 119.32-21.75 120.54-20 120.54-17.7L120.54-17.7Q120.54-14 117.39-11.98 114.24-9.95 108.69-10L108.69-10 103.19-10.05Q103.64-6.2 105.77-4.2 107.89-2.2 111.64-2.2L111.64-2.2Q113.89-2.2 115.82-2.83 117.74-3.45 119.54-4.75L119.54-4.75 121.04-2.75Q119.14-1.25 116.72-0.38 114.29 0.5 111.64 0.5L111.64 0.5ZM109.34-12.6Q117.54-12.6 117.54-17.75L117.54-17.75Q117.54-20.25 115.82-21.48 114.09-22.7 111.59-22.7L111.59-22.7Q108.79-22.7 106.87-21.1 104.94-19.5 103.99-17.15 103.04-14.8 103.04-12.6L103.04-12.6 109.34-12.6ZM136.99-25.5Q138.49-25.5 139.99-25.05L139.99-25.05 139.99-22.25Q138.54-22.6 137.09-22.6L137.09-22.6Q134.54-22.6 132.94-21.35L132.94-21.35Q131.34-20.1 130.09-17.8L130.09-17.8 130.09 0 127.09 0 127.09-17.5Q127.09-21.45 124.99-23.3L124.99-23.3 126.99-25.3Q127.89-24.75 128.69-23.65 129.49-22.55 129.84-21.2L129.84-21.2Q131.24-23.5 132.64-24.35L132.64-24.35Q134.39-25.5 136.99-25.5L136.99-25.5ZM146.19 0L146.19-34.2 149.19-34.2 149.19-2.8 166.54-2.8 166.54 0 146.19 0ZM181.19 0.5Q177.64 0.5 174.86-1.15 172.09-2.8 170.54-5.75 168.99-8.7 168.99-12.45L168.99-12.45Q168.99-16.2 170.56-19.18 172.14-22.15 174.91-23.83 177.69-25.5 181.24-25.5L181.24-25.5Q184.74-25.5 187.51-23.83 190.29-22.15 191.86-19.2 193.44-16.25 193.44-12.5L193.44-12.5Q193.44-8.75 191.86-5.8 190.29-2.85 187.51-1.18 184.74 0.5 181.19 0.5L181.19 0.5ZM181.24-2.2Q185.39-2.2 187.91-5.05 190.44-7.9 190.44-12.5L190.44-12.5Q190.44-15.55 189.29-17.88 188.14-20.2 186.04-21.5 183.94-22.8 181.24-22.8L181.24-22.8Q178.49-22.8 176.39-21.5 174.29-20.2 173.14-17.82 171.99-15.45 171.99-12.45L171.99-12.45Q171.99-9.45 173.14-7.13 174.29-4.8 176.39-3.5 178.49-2.2 181.24-2.2L181.24-2.2ZM211.23 13.95Q209.13 13.95 207.38 12.95 205.63 11.95 204.63 10.23 203.63 8.5 203.63 6.4L203.63 6.4Q203.63 2.6 206.48 0.25L206.48 0.25Q202.63-0.65 200.26-4.23 197.88-7.8 197.88-12.7L197.88-12.7Q197.88-16.55 199.43-19.45 200.98-22.35 203.81-23.95 206.63-25.55 210.33-25.55L210.33-25.55Q212.28-25.55 213.08-25.4L213.08-25.4 216.08-25.05 218.93-25.05 218.93 5.8Q218.93 9.45 216.81 11.7 214.68 13.95 211.23 13.95L211.23 13.95ZM208.28-2.35Q210.58-2.35 212.78-4.1L212.78-4.1Q214.18-5.2 215.06-6.55 215.93-7.9 215.93-9L215.93-9 215.93-22.4 211.38-22.65 209.73-22.65Q207.23-22.65 205.21-21.33 203.18-20 202.03-17.68 200.88-15.35 200.88-12.45L200.88-12.45Q200.88-9.7 201.88-7.38 202.88-5.05 204.58-3.7 206.28-2.35 208.28-2.35L208.28-2.35ZM211.48 11.05Q213.48 11.05 214.66 9.65 215.83 8.25 215.93 5.65L215.93 5.65 215.93-4.05Q215.83-3.95 215.21-3.03 214.58-2.1 213.73-1.4L213.73-1.4Q212.83-0.6 210.88 0.5L210.88 0.5Q209.53 1.3 209.33 1.45L209.33 1.45Q206.73 3.1 206.73 6.35L206.73 6.35Q206.73 8.35 208.11 9.7 209.48 11.05 211.48 11.05L211.48 11.05Z" opacity="1" transform="matrix(1,0,0,1,0,0)" fill="#000000" class="wordmark-text-0" data-fill-palette-color="primary" id="text-0"></path></svg></g></svg></g></svg></g></svg></g><g><svg viewBox="0 0 122.64138681379313 122.64138681379313" height="122.64138681379313" width="122.64138681379313"><g><svg></svg></g><g id="icon-0"><svg viewBox="0 0 122.64138681379313 122.64138681379313" height="122.64138681379313" width="122.64138681379313"><g><path transform="scale(1.22641,1.22641)" d="M30 100c-16.569 0-30-13.431-30-30v-40c0-16.569 13.431-30 30-30h40c16.569 0 30 13.431 30 30v40c0 16.569-13.431 30-30 30z" fill="#000000" fill-rule="nonzero" stroke="none" stroke-width="1" stroke-linecap="butt" stroke-linejoin="miter" stroke-miterlimit="10" stroke-dasharray="" stroke-dashoffset="0" font-family="none" font-weight="none" font-size="none" text-anchor="none" style="mix-blend-mode: normal" data-fill-palette-color="accent"></path></g><g transform="matrix(1,0,0,1,26.236217264574563,24.52827736275863)"><svg viewBox="0 0 70.168952284644 73.58483208827587" height="73.58483208827587" width="70.168952284644"><g><svg xmlns="http://www.w3.org/2000/svg" xmlns:xlink="http://www.w3.org/1999/xlink" version="1.1" x="0" y="0" viewBox="5.658576 3.5 88.68284913177946 93" style="enable-background:new 0 0 100 100;" xml:space="preserve" height="73.58483208827587" width="70.168952284644" class="icon-cg-0" data-fill-palette-color="quaternary" id="cg-0"><path d="M93.082 84.21c-0.149-0.024-0.271-0.03-0.419-0.029-2.763 0-5.314 1.393-6.799 3.673-1.033 0.389-1.944 1.064-2.628 1.934-0.94-0.344-1.96-0.503-2.977-0.467-0.921-1.218-2.344-1.994-3.89-2.087l-1.897-23.511h2.723c1.907 0 3.458-1.551 3.458-3.458v-1.488c0-1.907-1.551-3.458-3.458-3.458h-0.467v-5.559c0-7.99-6.5-14.49-14.489-14.49h-7.292C53.587 34.038 51.872 33 49.918 32.223v-4.804h0.792c2.068 0 3.75-1.682 3.75-3.75v-2.298c0-2.068-1.682-3.75-3.75-3.75h-5.882v-3.32h11.986c2.883 0 5.229-2.346 5.229-5.229V8.729C62.043 5.846 59.698 3.5 56.814 3.5H24.787c-2.883 0-5.229 2.346-5.229 5.229v0.343c0 2.884 2.346 5.229 5.229 5.229h11.981v3.32h-5.877c-2.068 0-3.75 1.682-3.75 3.75v2.298c0 2.068 1.682 3.75 3.75 3.75h0.797v4.803c-1.951 0.774-3.665 1.813-5.028 3.048H19.119v-1.64c0-2.845-2.315-5.16-5.161-5.16H7.159c-0.829 0-1.5 0.671-1.5 1.5s0.671 1.5 1.5 1.5h6.799c1.191 0 2.16 0.969 2.161 2.16v16.74c0 1.191-0.969 2.16-2.161 2.16H7.159c-0.829 0-1.5 0.671-1.5 1.5s0.671 1.5 1.5 1.5h6.799c2.845 0 5.16-2.314 5.161-5.16v-1.64h7.539c3.26 2.959 8.486 4.71 14.14 4.71 5.65 0 10.879-1.751 14.149-4.71h7.292c0.568 0 1.03 0.462 1.029 1.03v5.559h-0.461c-1.907 0-3.458 1.551-3.458 3.458v1.488c0 1.907 1.551 3.458 3.458 3.458H65.523l-1.906 23.75c-1.434 0.097-2.805 0.583-3.972 1.394-1.876-2.45-4.782-3.913-7.952-3.912-3.998 0-7.568 2.356-9.171 5.957-2.019 0.341-3.814 1.523-4.93 3.285-0.443 0.7-0.235 1.626 0.464 2.07C38.305 96.425 38.583 96.5 38.857 96.5c0.497 0 0.983-0.247 1.269-0.697 0.766-1.209 2.075-1.954 3.5-1.991 0.632-0.017 1.185-0.427 1.384-1.027 0.96-2.889 3.646-4.831 6.683-4.83 2.675 0 5.083 1.486 6.284 3.879 0.225 0.447 0.657 0.753 1.154 0.815 0.498 0.062 0.991-0.126 1.319-0.504 0.933-1.074 2.282-1.69 3.7-1.69 0.214 0 0.42 0.014 0.618 0.045 0.411 0.062 0.832-0.046 1.16-0.306 0.327-0.258 0.532-0.641 0.565-1.057l2.04-25.414h2.929l2.04 25.279c0.037 0.455 0.278 0.868 0.657 1.123 0.379 0.256 0.853 0.324 1.287 0.188 0.187-0.059 0.391-0.088 0.608-0.089 0.88 0 1.688 0.517 2.059 1.317 0.287 0.619 0.957 0.967 1.628 0.845 1.07-0.194 2.329 0.027 3.287 0.618 0.239 0.147 0.512 0.222 0.786 0.222 0.152 0 0.304-0.023 0.452-0.07 0.415-0.131 0.753-0.437 0.926-0.836 0.376-0.872 1.136-1.528 2.033-1.754 0.405-0.102 0.75-0.369 0.95-0.736 0.892-1.634 2.612-2.649 4.425-2.659 0.82 0.132 1.589-0.422 1.722-1.239C94.455 85.114 93.9 84.344 93.082 84.21zM53.893 6.5h2.921c1.229 0 2.229 1 2.229 2.229v0.343c0 1.229-1 2.229-2.229 2.229h-2.921V6.5zM42.301 6.5h8.592v4.801h-8.592V6.5zM39.768 14.301h2.06v3.32h-2.06V14.301zM27.708 11.301h-2.921c-1.229 0-2.229-1-2.229-2.229V8.729c0-1.229 1-2.229 2.229-2.229h2.921V11.301zM30.708 11.301V6.5h8.593v4.801H30.708zM30.891 24.419c-0.414 0-0.75-0.336-0.75-0.75v-2.298c0-0.414 0.336-0.75 0.75-0.75h19.819c0.414 0 0.75 0.336 0.75 0.75v2.298c0 0.414-0.336 0.75-0.75 0.75H30.891zM62.239 45.73h-7.89c-0.398 0-0.779 0.158-1.061 0.439-2.635 2.634-7.42 4.271-12.49 4.271-5.072 0-9.854-1.636-12.477-4.269-0.281-0.283-0.664-0.441-1.063-0.441H19.119v-7.46h8.139c0.398 0 0.779-0.158 1.061-0.439 1.323-1.323 3.172-2.408 5.347-3.139 0.611-0.205 1.022-0.777 1.022-1.422v-5.851h12.23v5.851c0 0.644 0.411 1.215 1.021 1.421 2.182 0.736 4.031 1.821 5.349 3.14 0.281 0.281 0.663 0.439 1.061 0.439h7.89c6.335 0 11.49 5.154 11.489 11.49v5.559h-7.46v-5.559C66.268 47.538 64.461 45.73 62.239 45.73zM62.807 60.723c-0.252 0-0.458-0.206-0.458-0.458v-1.488c0-0.253 0.206-0.458 0.458-0.458h14.388c0.252 0 0.458 0.206 0.458 0.458v1.488c0 0.253-0.206 0.458-0.458 0.458H62.807z" fill="#ffffff" data-fill-palette-color="quaternary"></path></svg></g></svg></g></svg></g></svg></g></svg></g><defs></defs></svg><rect width="395.52" height="89.97609083997722" fill="none" stroke="none" visibility="hidden"></rect></g></svg></g></svg>