<?xml version="1.0" encoding="UTF-8"?>
<svg version="1.1" xmlns="http://www.w3.org/2000/svg" width="456" height="454">
<path d="M0 0 C1.29695615 -0.00445668 1.29695615 -0.00445668 2.62011343 -0.0090034 C5.49915809 -0.01763109 8.37816088 -0.01919361 11.25721741 -0.02069092 C13.32931099 -0.02532341 15.40140373 -0.03034864 17.47349548 -0.03573608 C23.0917523 -0.0488232 28.70999719 -0.05529818 34.32826686 -0.05974674 C37.84480812 -0.06268428 41.36134618 -0.06679043 44.87788582 -0.07125092 C55.89886584 -0.08491801 66.91983845 -0.09458773 77.94082636 -0.09845281 C90.62776679 -0.10292751 103.31459915 -0.12045146 116.00150675 -0.1494534 C125.83030474 -0.17113521 135.65907248 -0.1811606 145.48789412 -0.18249393 C151.34745004 -0.18353758 157.20690429 -0.18935097 163.06643486 -0.20731354 C168.58636491 -0.22390623 174.10611806 -0.22589585 179.6260643 -0.21717453 C181.63946955 -0.21641003 183.65288475 -0.22066822 185.66626549 -0.23063278 C201.54661801 -0.30454663 216.52486987 1.05814874 231.6285553 6.32794189 C232.50640686 6.62909912 233.38425842 6.93025635 234.28871155 7.24053955 C268.3699882 19.29654348 296.23478355 44.59170416 312.00746155 77.05059814 C316.36673897 86.41205969 319.62570564 96.11084944 322.0660553 106.14044189 C322.24067102 106.82555092 322.41528675 107.51065994 322.59519386 108.21652985 C324.76266612 118.12251578 324.36223119 128.19944284 324.35658264 138.28302002 C324.36257447 140.42127719 324.36938151 142.55953221 324.37693787 144.69778442 C324.39454211 150.48335989 324.399291 156.26887612 324.40056944 162.05447578 C324.40199518 165.67775709 324.40627287 169.30102354 324.41156387 172.92430115 C324.43004835 185.58978219 324.43823679 198.25522125 324.43666077 210.92071533 C324.43546102 222.68526272 324.45653489 234.44962617 324.48814809 246.21412706 C324.51439649 256.34705474 324.52502443 266.47992268 324.52374995 276.61288404 C324.52324267 282.65021714 324.52879507 288.68738675 324.55010605 294.72468567 C324.56963223 300.41132731 324.56951554 306.097652 324.55507278 311.78430557 C324.55300105 313.85653782 324.55758635 315.92879068 324.5697937 318.00098801 C324.66070679 334.52032136 322.88563777 350.39097329 316.8160553 365.89044189 C316.36999939 367.05772827 316.36999939 367.05772827 315.91493225 368.24859619 C303.02861186 401.02911628 277.42072205 428.36716881 245.2535553 442.91778564 C238.76868509 445.61752504 232.15611863 447.84240824 225.4410553 449.89044189 C224.79716858 450.08936035 224.15328186 450.28827881 223.48988342 450.4932251 C210.19631596 454.34736761 197.01992172 454.43424114 183.30726624 454.4151001 C181.23443418 454.41945482 179.16160373 454.42464049 177.08877563 454.43058777 C171.49145675 454.44390834 165.89420568 454.44456412 160.29687405 454.44202447 C155.60800429 454.44094986 150.91914797 454.44585069 146.23028111 454.45062989 C135.15876449 454.46170145 124.0872818 454.46217598 113.01576233 454.45611572 C101.6317469 454.45007976 90.24785518 454.46238285 78.86386085 454.48368579 C69.05618754 454.50135741 59.24855342 454.50729434 49.4408648 454.50404805 C43.59815875 454.50224364 37.75554092 454.50478658 31.91284943 454.51876259 C26.4133614 454.53142686 20.9140648 454.52931624 15.41457939 454.5163517 C13.40923686 454.51400484 11.40388048 454.51665175 9.39855385 454.52497482 C-26.99085026 454.66498465 -60.05053654 442.91051303 -86.9339447 418.14044189 C-87.87882751 417.27805908 -88.82371033 416.41567627 -89.79722595 415.52716064 C-113.28984056 393.09786099 -128.60751216 360.56289843 -130.028193 327.97880566 C-130.0669722 325.75891979 -130.07689501 323.54097578 -130.0743866 321.320755 C-130.07735772 320.48047003 -130.08032884 319.64018505 -130.08339 318.77443689 C-130.09199973 315.98374916 -130.09357866 313.1931047 -130.09507751 310.40240479 C-130.09971127 308.39089874 -130.10473667 306.37939357 -130.11012268 304.3678894 C-130.12319734 298.91904075 -130.1296823 293.47020439 -130.13413334 288.02134252 C-130.13707282 284.60948159 -130.14117931 281.19762395 -130.14563751 277.78576469 C-130.15930115 267.08888518 -130.16897263 256.39201327 -130.1728394 245.69512564 C-130.17731366 233.38854721 -130.19483703 221.08208021 -130.22384 208.77553564 C-130.24553291 199.236296 -130.25554777 189.69708752 -130.25688052 180.1578235 C-130.25792336 174.47318917 -130.26371905 168.78865973 -130.28170013 163.10405159 C-130.29831231 157.74825873 -130.30027325 152.39264815 -130.29156113 147.03683853 C-130.29079766 145.0851295 -130.29504075 143.13341013 -130.30501938 141.18172646 C-130.41693875 117.90241754 -126.59751248 96.02217045 -115.9339447 75.14044189 C-115.1315033 73.52202393 -115.1315033 73.52202393 -114.31285095 71.87091064 C-108.18300608 59.93682467 -100.10225109 49.87244162 -90.9339447 40.14044189 C-90.33453064 39.47657471 -89.73511658 38.81270752 -89.11753845 38.12872314 C-66.96256308 14.53822021 -32.16234043 -0.03510396 0 0 Z " fill="#2257BF" transform="translate(131.93394470214844,-0.14044189453125)"/>
<path d="M0 0 C0.85232208 -0.00571014 1.70464417 -0.01142029 2.58279419 -0.01730347 C3.98853195 -0.01898026 3.98853195 -0.01898026 5.42266846 -0.02069092 C6.40818695 -0.02565582 7.39370544 -0.03062073 8.40908813 -0.03573608 C11.68087453 -0.0503827 14.95261242 -0.05716444 18.22442627 -0.06268311 C20.49405926 -0.06843321 22.76369224 -0.07419096 25.0333252 -0.07995605 C29.79819974 -0.09047364 34.56305737 -0.09631111 39.32794189 -0.09979248 C45.43237296 -0.10527386 51.53658059 -0.12929126 57.64094162 -0.15776443 C62.33183442 -0.17639406 67.02267349 -0.18159663 71.71360016 -0.18312836 C73.96385162 -0.18615549 76.21410212 -0.19418601 78.46431732 -0.20731354 C81.61466921 -0.22437784 84.76447654 -0.22249245 87.91485596 -0.21600342 C88.84391754 -0.2252182 89.77297913 -0.23443298 90.73019409 -0.243927 C96.60216748 -0.20606009 101.05266859 0.51822111 105.57208252 4.64044189 C109.42522306 9.58895683 110.44158773 12.86919703 109.92755127 19.14044189 C108.23518162 24.60496076 106.12123939 27.4605204 101.01481628 30.28993225 C97.24257322 31.8270294 93.51271774 31.62997686 89.49395752 31.53106689 C88.61602036 31.5254071 87.73808319 31.51974731 86.83354187 31.51391602 C84.05180447 31.49167042 81.27139395 31.4414978 78.49005127 31.39044189 C76.59488769 31.37036155 74.69970375 31.35211347 72.80450439 31.33575439 C68.17834843 31.29184459 63.55317418 31.22290072 58.92755127 31.14044189 C58.92755127 34.44044189 58.92755127 37.74044189 58.92755127 41.14044189 C60.30169189 41.09403564 61.67583252 41.04762939 63.09161377 40.99981689 C64.91190445 40.96228513 66.73221875 40.92588648 68.55255127 40.89044189 C69.90800049 40.84016846 69.90800049 40.84016846 71.29083252 40.78887939 C77.03246661 40.70505992 80.42792717 41.19439931 84.92755127 45.14044189 C88.44239265 50.41270397 87.55375141 57.01686365 86.92755127 63.14044189 C85.70748618 66.46015388 84.94555256 67.00269098 81.92755127 69.14044189 C79.15330117 69.87887445 76.83228969 70.04197619 73.92755127 70.14044189 C73.70554708 74.96576816 73.73157931 79.44198062 74.92755127 84.14044189 C77.35957178 86.2945172 79.42393942 87.1982425 82.48223877 88.24591064 C84.92755127 89.14044189 84.92755127 89.14044189 86.19195557 90.67315674 C88.76343567 92.84710461 90.81761484 92.50938862 94.14239502 92.51153564 C96.00927979 92.53763916 96.00927979 92.53763916 97.91387939 92.56427002 C100.51282739 92.57326292 103.11179118 92.57857508 105.71075439 92.57989502 C119.99935813 92.79250123 130.97203613 96.7146139 141.61505127 106.26544189 C150.69312883 115.76575562 153.26653285 127.92833847 153.05255127 140.57794189 C153.04352783 141.59565674 153.03450439 142.61337158 153.02520752 143.66192627 C153.00179825 146.15501345 152.96900827 148.64760049 152.92755127 151.14044189 C153.69583252 151.26548096 154.46411377 151.39052002 155.25567627 151.51934814 C158.62872228 152.3034334 160.39718378 153.82093836 162.92755127 156.14044189 C164.89983909 160.08501754 164.37562782 164.84132902 163.92755127 169.14044189 C162.89974443 171.77610499 161.88957784 173.01024162 159.92755127 175.14044189 C156.01523452 176.44454748 152.48996672 176.21764678 148.39703369 176.16949463 C147.58210449 176.15990723 146.76717529 176.15031982 145.92755127 176.14044189 C146.05307373 176.99049805 146.17859619 177.8405542 146.30792236 178.71636963 C147.71057803 188.65327943 148.62690396 198.58565429 149.36016846 208.59283447 C149.5526068 211.2036953 149.75530243 213.81362563 149.95880127 216.42364502 C150.68641682 226.02115964 151.12468045 235.5099843 150.92755127 245.14044189 C152.34487549 245.32606689 152.34487549 245.32606689 153.79083252 245.51544189 C156.92755127 246.14044189 156.92755127 246.14044189 159.11505127 248.14044189 C163.36665975 251.16380792 167.77729388 251.50444505 172.92755127 251.14044189 C175.97508462 249.39100113 175.97508462 249.39100113 177.92755127 247.14044189 C178.58755127 247.14044189 179.24755127 247.14044189 179.92755127 247.14044189 C180.15442627 246.56294189 180.38130127 245.98544189 180.61505127 245.39044189 C183.58256081 240.30328268 188.50387756 237.97897536 193.92755127 236.14044189 C196.7392668 235.8093522 199.0702758 235.89829991 201.92755127 236.14044189 C203.92755127 238.14044189 203.92755127 238.14044189 204.17755127 240.64044189 C203.92755127 243.14044189 203.92755127 243.14044189 201.92755127 245.14044189 C199.68536377 245.70294189 199.68536377 245.70294189 197.05255127 246.14044189 C193.66570634 246.70660105 190.8827656 247.34596638 187.92755127 249.14044189 C187.65942627 249.73856689 187.39130127 250.33669189 187.11505127 250.95294189 C185.5211715 253.8890362 183.33262475 255.08561846 180.57989502 256.89825439 C178.73457711 258.11712122 178.73457711 258.11712122 177.55255127 260.51544189 C175.92755127 262.14044189 175.92755127 262.14044189 174.06817627 262.19903564 C172.507714 262.02953716 170.95212449 261.81028073 169.40411377 261.55059814 C166.97802083 261.14880042 164.63074499 261.01761414 162.17755127 260.89044189 C157.6222876 260.41839385 156.09927623 258.39349314 152.92755127 255.14044189 C150.90548108 254.64436318 150.90548108 254.64436318 148.74005127 254.51544189 C147.48192627 254.39169189 146.22380127 254.26794189 144.92755127 254.14044189 C142.69822732 250.79645596 142.56123655 249.25653271 142.25738525 245.3147583 C142.16066025 244.11565826 142.06393524 242.91655823 141.96427917 241.68112183 C141.82041527 239.7312587 141.82041527 239.7312587 141.67364502 237.74200439 C141.56755746 236.38732027 141.46069788 235.0326964 141.35310364 233.6781311 C141.07123585 230.10310516 140.79988346 226.52735541 140.53070068 222.95135498 C140.25846634 219.35894498 139.97640127 215.7673098 139.69512939 212.17559814 C139.18795984 205.68052452 138.6902678 199.18476726 138.19729614 192.68859863 C137.77792144 187.17224842 137.35282809 181.65633977 136.92755127 176.14044189 C133.95755127 176.14044189 130.98755127 176.14044189 127.92755127 176.14044189 C127.93901688 176.75830566 127.95048248 177.37616943 127.96229553 178.01275635 C128.04441338 186.15202133 127.54041266 194.21460468 126.93927002 202.32794189 C126.88785166 203.0312262 126.8364333 203.7345105 126.7834568 204.45910645 C126.51227757 208.16525193 126.23627963 211.87100032 125.95611572 215.57647705 C125.66824611 219.39653751 125.39716687 223.2176032 125.12970257 227.03913879 C124.92010389 229.99091464 124.69828954 232.94168044 124.47309303 235.89230347 C124.3676565 237.30177401 124.26682536 238.71159702 124.17072105 240.12173462 C124.03580412 242.0846328 123.88189963 244.04619814 123.72711182 246.00762939 C123.64494919 247.12250732 123.56278656 248.23738525 123.47813416 249.38604736 C122.8832829 252.36190276 122.36996229 253.39487597 119.92755127 255.14044189 C117.65802002 255.47637939 117.65802002 255.47637939 115.11505127 255.51544189 C111.3512217 255.75580256 109.40731121 256.12981161 106.67755127 258.76544189 C103.92755127 261.14044189 103.92755127 261.14044189 100.80255127 261.32794189 C96.97869089 259.7485213 96.05024729 257.63261922 93.92755127 254.14044189 C88.9545116 249.42914115 83.89567397 247.66318786 77.01739502 247.80841064 C73.89855274 248.30392764 71.41778949 249.62365394 68.68927002 251.16778564 C66.92755127 252.14044189 66.92755127 252.14044189 63.92755127 253.14044189 C62.5821599 255.41078982 61.76395969 257.63121664 60.92755127 260.14044189 C58.30013982 264.08155907 55.72608753 264.62728428 51.36114502 266.12872314 C48.15505254 267.46159305 46.32125967 269.67834183 43.92755127 272.14044189 C41.24005127 272.64044189 41.24005127 272.64044189 38.92755127 272.14044189 C36.92755127 269.14044189 36.92755127 269.14044189 37.05255127 267.26544189 C39.45110542 261.44038182 43.4702196 258.77165538 48.92755127 256.14044189 C50.24755127 256.14044189 51.56755127 256.14044189 52.92755127 256.14044189 C53.14411377 254.90294189 53.14411377 254.90294189 53.36505127 253.64044189 C56.06559089 247.59123314 61.53182257 242.92634925 67.55255127 240.14044189 C75.17958718 237.80189181 84.68965795 237.77015377 92.05255127 240.89044189 C95.30930174 242.62655462 98.26516381 244.5639379 100.92755127 247.14044189 C100.92755127 247.80044189 100.92755127 248.46044189 100.92755127 249.14044189 C102.14442627 248.64544189 103.36130127 248.15044189 104.61505127 247.64044189 C107.88264526 246.31125112 110.41345741 246.07937147 113.92755127 246.14044189 C113.97242676 245.34388184 114.01730225 244.54732178 114.0635376 243.72662354 C114.97603501 227.78007793 116.0416358 211.86049703 117.49005127 195.95294189 C117.55399078 195.24171173 117.6179303 194.53048157 117.68380737 193.79769897 C118.82512902 181.17579821 118.82512902 181.17579821 119.92755127 176.14044189 C119.11930908 176.18684814 118.31106689 176.23325439 117.47833252 176.28106689 C108.67224668 176.57849802 108.67224668 176.57849802 104.74005127 174.26544189 C101.22168241 170.14045771 101.53308395 166.41504299 101.58380127 161.14044189 C101.92086707 158.19877675 102.29918579 156.72826254 104.05255127 154.39044189 C106.92755127 152.14044189 106.92755127 152.14044189 112.92755127 152.14044189 C112.92755127 145.87044189 112.92755127 139.60044189 112.92755127 133.14044189 C108.92589868 132.97772409 104.9309251 132.85916637 100.92755127 132.76544189 C99.80219971 132.71516846 98.67684814 132.66489502 97.51739502 132.61309814 C89.55243119 132.47336194 85.77054274 133.86835791 79.92755127 139.14044189 C76.70766405 140.85409353 73.38807074 141.99709846 69.92755127 143.14044189 C69.08063721 143.44079346 68.23372314 143.74114502 67.36114502 144.05059814 C50.44548782 149.22394992 30.25613 147.31937999 14.67755127 139.07794189 C12.31902335 137.69725086 10.18556905 136.36221498 8.11309814 134.58087158 C5.47240113 132.84046582 3.86531704 132.72002811 0.72442627 132.62872314 C-0.25526123 132.59327393 -1.23494873 132.55782471 -2.24432373 132.52130127 C-3.76799561 132.48746338 -3.76799561 132.48746338 -5.32244873 132.45294189 C-6.35369873 132.41878174 -7.38494873 132.38462158 -8.44744873 132.34942627 C-10.98900685 132.26706096 -13.53022499 132.19787356 -16.07244873 132.14044189 C-16.03893311 133.37278564 -16.00541748 134.60512939 -15.97088623 135.87481689 C-15.97514192 139.09495553 -16.19575477 141.48472513 -17.69744873 144.39044189 C-17.99908936 145.01434814 -18.30072998 145.63825439 -18.61151123 146.28106689 C-20.80811363 149.07674268 -22.74643331 150.91191368 -26.07244873 152.14044189 C-30.66607286 152.65067759 -35.20699426 152.56191118 -39.82244873 152.45294189 C-41.06639404 152.44327393 -42.31033936 152.43360596 -43.59197998 152.42364502 C-52.73486328 152.30923462 -52.73486328 152.30923462 -55.07244873 151.14044189 C-55.19744873 148.26544189 -55.19744873 148.26544189 -55.07244873 145.14044189 C-52.43585188 142.50384505 -51.15586883 142.86380198 -47.47869873 142.79669189 C-46.36623779 142.76704346 -45.25377686 142.73739502 -44.10760498 142.70684814 C-41.75083415 142.66257731 -39.39406331 142.61830648 -37.03729248 142.57403564 C-35.92483154 142.54438721 -34.81237061 142.51473877 -33.66619873 142.48419189 C-32.64203857 142.46550049 -31.61787842 142.44680908 -30.56268311 142.42755127 C-27.89956749 142.38187045 -27.89956749 142.38187045 -26.07244873 140.14044189 C-25.76588541 137.72826767 -25.76588541 137.72826767 -25.81365967 134.89630127 C-25.80735535 133.80176636 -25.80105103 132.70723145 -25.79455566 131.57952881 C-25.79860413 130.39306763 -25.80265259 129.20660645 -25.80682373 127.98419189 C-25.80491028 126.77098267 -25.80299683 125.55777344 -25.80102539 124.30780029 C-25.79966239 121.73882846 -25.80336681 119.16984977 -25.81170654 116.60089111 C-25.82240413 112.65688686 -25.81181479 108.71333814 -25.79901123 104.76934814 C-25.8003328 102.27846172 -25.80289515 99.78757557 -25.80682373 97.29669189 C-25.80277527 96.11023071 -25.79872681 94.92376953 -25.79455566 93.70135498 C-25.80085999 92.60682007 -25.80716431 91.51228516 -25.81365967 90.38458252 C-25.81525085 89.41798706 -25.81684204 88.4513916 -25.81848145 87.45550537 C-25.84938474 84.94631824 -25.84938474 84.94631824 -28.07244873 83.14044189 C-30.65889843 82.80170249 -30.65889843 82.80170249 -33.66619873 82.79669189 C-34.77865967 82.76704346 -35.89112061 82.73739502 -37.03729248 82.70684814 C-38.20389404 82.68493408 -39.37049561 82.66302002 -40.57244873 82.64044189 C-42.87471502 82.5971949 -45.17684364 82.54553913 -47.47869873 82.48419189 C-48.50285889 82.46550049 -49.52701904 82.44680908 -50.58221436 82.42755127 C-53.07244873 82.14044189 -53.07244873 82.14044189 -55.07244873 80.14044189 C-55.32244873 77.64044189 -55.32244873 77.64044189 -55.07244873 75.14044189 C-51.46791036 71.53590352 -45.82139347 72.77095541 -40.94744873 72.76544189 C-39.83112061 72.74094971 -38.71479248 72.71645752 -37.56463623 72.69122314 C-30.58460294 72.66652963 -25.96759665 73.31340531 -20.07244873 77.14044189 C-16.75697674 80.76114594 -15.87193491 84.02541776 -15.97869873 88.87872314 C-15.99900146 90.08008911 -15.99900146 90.08008911 -16.01971436 91.3057251 C-16.0371167 91.91118164 -16.05451904 92.51663818 -16.07244873 93.14044189 C-12.4042442 93.14676016 -8.73990096 93.08674109 -5.07244873 93.01544189 C-3.52750732 93.01930908 -3.52750732 93.01930908 -1.95135498 93.02325439 C4.46199307 92.85985699 8.25945058 92.04455507 13.01348877 87.61749268 C14.92755127 86.14044189 14.92755127 86.14044189 20.92755127 84.14044189 C20.92755127 79.52044189 20.92755127 74.90044189 20.92755127 70.14044189 C18.94755127 70.14044189 16.96755127 70.14044189 14.92755127 70.14044189 C12.84552002 68.93341064 12.84552002 68.93341064 11.11505127 67.32794189 C10.2391333 66.54483643 10.2391333 66.54483643 9.34552002 65.74591064 C6.02085526 61.9816208 6.48448788 56.92037404 6.50177002 52.16778564 C7.14851365 47.56937908 9.37022186 44.9881486 12.92755127 42.14044189 C15.38030268 40.91406619 16.97812937 41.02628875 19.71661377 41.04278564 C20.65762939 41.0460083 21.59864502 41.04923096 22.56817627 41.05255127 C23.55302002 41.06093018 24.53786377 41.06930908 25.55255127 41.07794189 C27.04141846 41.08470947 27.04141846 41.08470947 28.56036377 41.09161377 C31.01611849 41.10342028 33.47184233 41.12135607 35.92755127 41.14044189 C35.92755127 37.84044189 35.92755127 34.54044189 35.92755127 31.14044189 C34.11952026 31.17971802 34.11952026 31.17971802 32.27496338 31.2197876 C27.78182708 31.31062588 23.28877115 31.36781299 18.79498291 31.4151001 C16.85408862 31.44016789 14.91328803 31.47423144 12.97271729 31.51763916 C10.17487416 31.57863343 7.37828416 31.60672877 4.57989502 31.62872314 C3.71919907 31.65452957 2.85850311 31.680336 1.97172546 31.70692444 C-3.32984486 31.70936514 -6.49066476 30.81655551 -10.69132996 27.54051208 C-14.12803818 24.05664609 -15.22019819 19.82260691 -15.50994873 15.07794189 C-14.87690165 9.38051817 -12.68202569 6.55840255 -8.44744873 2.82794189 C-5.33682157 0.61775944 -3.7503571 0.01502404 0 0 Z " fill="#F8FAFD" transform="translate(155.07244873046875,90.85955810546875)"/>
<path d="M0 0 C11.55 0 23.1 0 35 0 C34.855625 2.97 34.71125 5.94 34.5625 9 C34.55199607 15.28479027 34.55199607 15.28479027 37.45507812 20.62060547 C40.54866375 22.81064384 43.83513771 24.18689903 47.36328125 25.52734375 C51 27 51 27 52.77368164 29.06274414 C55.9233437 31.80345787 58.129677 31.48309982 62.2578125 31.46875 C63.31245193 31.47932434 63.31245193 31.47932434 64.38839722 31.4901123 C67.3811982 31.5194336 70.37333952 31.50311145 73.36621094 31.49072266 C86.02696684 31.4767975 95.50418671 32.75364093 105.0234375 41.78515625 C108.06093363 45.18883274 110.20976749 48.81560113 112 53 C112.55494141 54.25296875 112.55494141 54.25296875 113.12109375 55.53125 C114.41696469 60.64562062 114.2090772 65.62340851 114.125 70.875 C114.11597656 71.94492188 114.10695313 73.01484375 114.09765625 74.1171875 C114.07419463 76.74488856 114.03832696 79.37247372 114 82 C106.74 82 99.48 82 92 82 C91.75 72.375 91.75 72.375 91.70214844 69.37646484 C91.48950989 63.84002857 90.82419863 60.29883321 87 56 C81.88388692 52.7347119 75.73389912 53.50933085 69.875 53.4375 C68.6890625 53.38787109 67.503125 53.33824219 66.28125 53.28710938 C58.5281263 53.19725529 54.22069813 54.41329736 48.17138672 59.27856445 C45.26833568 61.58005005 42.60709919 62.64051496 39.125 63.875 C38.05507812 64.26429688 36.98515625 64.65359375 35.8828125 65.0546875 C22.42715186 69.4669773 4.75474023 68.35305283 -8.125 62.60546875 C-11.83192813 60.6583456 -15.16470219 58.75606538 -18.27783203 55.93823242 C-21.45334455 53.67721055 -23.10278512 53.46968646 -26.95703125 53.390625 C-28.62475586 53.34228516 -28.62475586 53.34228516 -30.32617188 53.29296875 C-31.47666016 53.27878906 -32.62714844 53.26460937 -33.8125 53.25 C-34.98232422 53.22035156 -36.15214844 53.19070312 -37.35742188 53.16015625 C-40.23791219 53.08961363 -43.11895984 53.04252458 -46 53 C-46 46.07 -46 39.14 -46 32 C-44.31132812 32.00902344 -42.62265625 32.01804688 -40.8828125 32.02734375 C-38.63018525 31.99918591 -36.37758107 31.96913737 -34.125 31.9375 C-33.01640625 31.94845703 -31.9078125 31.95941406 -30.765625 31.97070312 C-23.33965814 31.81781557 -18.99523677 30.44877031 -13.22045898 25.72412109 C-10.27534748 23.43732863 -7.16753806 22.16524765 -3.71484375 20.82421875 C-1.80591997 20.12218486 -1.80591997 20.12218486 -1 18 C-0.84995027 16.6265365 -0.75161994 15.2471474 -0.68359375 13.8671875 C-0.64548584 13.14128418 -0.60737793 12.41538086 -0.56811523 11.66748047 C-0.52501221 10.74596191 -0.48190918 9.82444336 -0.4375 8.875 C-0.293125 5.94625 -0.14875 3.0175 0 0 Z " fill="#2357BF" transform="translate(185,161)"/>
<path d="M0 0 C1.21796265 -0.00315216 2.43592529 -0.00630432 3.6907959 -0.009552 C5.03019242 -0.00776222 6.36958862 -0.00571127 7.70898438 -0.00341797 C9.07279477 -0.00409106 10.43660505 -0.00506114 11.80041504 -0.00631714 C14.66203959 -0.00779385 17.52363297 -0.00564044 20.38525391 -0.00097656 C24.06092051 0.00472073 27.73651411 0.00144157 31.41217804 -0.00454903 C34.22935541 -0.00815538 37.04651535 -0.00701571 39.86369324 -0.00442123 C41.21933501 -0.00375217 42.57497834 -0.00457968 43.93061829 -0.00690079 C45.82223482 -0.00942848 47.71385687 -0.00489561 49.60546875 0 C51.2231012 0.00119339 51.2231012 0.00119339 52.87341309 0.00241089 C55.30273438 0.12939453 55.30273438 0.12939453 56.30273438 1.12939453 C56.40064007 2.62677577 56.43248302 4.12882345 56.42773438 5.62939453 C56.43160156 6.85142578 56.43160156 6.85142578 56.43554688 8.09814453 C56.30273438 10.12939453 56.30273438 10.12939453 55.30273438 11.12939453 C53.40574589 11.22855248 51.50504651 11.25738767 49.60546875 11.25878906 C48.3875061 11.26194122 47.16954346 11.26509338 45.91467285 11.26834106 C44.57527633 11.26655128 43.23588013 11.26450033 41.89648438 11.26220703 C40.53267398 11.26288013 39.1688637 11.2638502 37.80505371 11.2651062 C34.94342916 11.26658291 32.08183578 11.2644295 29.22021484 11.25976562 C25.54454824 11.25406834 21.86895464 11.25734749 18.19329071 11.26333809 C15.37611334 11.26694444 12.5589534 11.26580478 9.74177551 11.2632103 C8.38613374 11.26254123 7.03049041 11.26336874 5.67485046 11.26568985 C3.78323393 11.26821754 1.89161188 11.26368467 0 11.25878906 C-1.61763245 11.25759567 -1.61763245 11.25759567 -3.26794434 11.25637817 C-5.69726562 11.12939453 -5.69726562 11.12939453 -6.69726562 10.12939453 C-6.79517132 8.63201329 -6.82701427 7.12996561 -6.82226562 5.62939453 C-6.82484375 4.81470703 -6.82742187 4.00001953 -6.83007812 3.16064453 C-6.55358078 -1.06813835 -3.58352457 0.0026437 0 0 Z " fill="#2458BF" transform="translate(177.697265625,140.87060546875)"/>
<path d="M0 0 C8.25 0 16.5 0 25 0 C25 4.62 25 9.24 25 14 C16.75 14 8.5 14 0 14 C0 9.38 0 4.76 0 0 Z " fill="#275BC0" transform="translate(207,100)"/>
<path d="M0 0 C8.25 0 16.5 0 25 0 C25 4.62 25 9.24 25 14 C16.75 14 8.5 14 0 14 C0 9.38 0 4.76 0 0 Z " fill="#275BC0" transform="translate(173,100)"/>
<path d="M0 0 C14.52 0 29.04 0 44 0 C44 2.31 44 4.62 44 7 C29.48 7 14.96 7 0 7 C0 4.69 0 2.38 0 0 Z " fill="#2C5FC2" transform="translate(266,251)"/>
<path d="M0 0 C0 4.62 0 9.24 0 14 C-10.22989254 14.60892218 -10.22989254 14.60892218 -13.6875 11.875 C-15.19836633 8.56548328 -15.54698477 6.59447138 -15 3 C-11.60139364 -1.96987985 -5.32939632 -0.17191601 0 0 Z " fill="#285CC1" transform="translate(164,100)"/>
<path d="M0 0 C1.918125 -0.0825 3.83625 -0.165 5.8125 -0.25 C7.43091797 -0.31960937 7.43091797 -0.31960937 9.08203125 -0.390625 C12 0 12 0 13.890625 1.79296875 C15.58662541 5.16705407 14.97337719 7.43095029 14 11 C11.79558132 13.16958588 10.51449088 13.94153513 7.421875 14.29296875 C6.54015625 14.25816406 5.6584375 14.22335938 4.75 14.1875 C3.1825 14.125625 1.615 14.06375 0 14 C0 9.38 0 4.76 0 0 Z " fill="#295CC1" transform="translate(241,100)"/>
<path d="M0 0 C1.65 0 3.3 0 5 0 C5 2.97 5 5.94 5 9 C3.35 9 1.7 9 0 9 C0 6.03 0 3.06 0 0 Z " fill="#2257BF" transform="translate(200,123)"/>
</svg>
