<?xml version="1.0" encoding="UTF-8"?>
<svg xmlns="http://www.w3.org/2000/svg" xmlns:xlink="http://www.w3.org/1999/xlink" width="50px" height="50px" viewBox="0 0 50 49" version="1.1">
<g id="surface1">
<path style=" stroke:none;fill-rule:nonzero;fill:rgb(13.333333%,34.117647%,74.901961%);fill-opacity:1;" d="M 14.464844 -0.015625 C 14.609375 -0.015625 14.609375 -0.015625 14.753906 -0.015625 C 15.070312 -0.015625 15.386719 -0.015625 15.699219 -0.015625 C 15.929688 -0.0195312 16.15625 -0.0195312 16.382812 -0.0195312 C 17 -0.0195312 17.613281 -0.0195312 18.230469 -0.0234375 C 18.617188 -0.0234375 19 -0.0234375 19.386719 -0.0234375 C 20.59375 -0.0234375 21.804688 -0.0234375 23.011719 -0.0273438 C 24.402344 -0.0273438 25.792969 -0.0273438 27.1875 -0.03125 C 28.261719 -0.0351562 29.339844 -0.0351562 30.417969 -0.0351562 C 31.0625 -0.0351562 31.703125 -0.0351562 32.347656 -0.0390625 C 32.953125 -0.0390625 33.558594 -0.0390625 34.164062 -0.0390625 C 34.382812 -0.0390625 34.605469 -0.0390625 34.824219 -0.0390625 C 36.566406 -0.046875 38.207031 0.0976562 39.863281 0.667969 C 39.960938 0.699219 40.058594 0.734375 40.15625 0.765625 C 43.894531 2.066406 46.949219 4.796875 48.679688 8.300781 C 49.15625 9.3125 49.511719 10.359375 49.78125 11.441406 C 49.800781 11.515625 49.820312 11.589844 49.839844 11.664062 C 50.078125 12.734375 50.03125 13.820312 50.03125 14.910156 C 50.03125 15.140625 50.035156 15.371094 50.035156 15.601562 C 50.035156 16.226562 50.035156 16.851562 50.035156 17.476562 C 50.035156 17.867188 50.039062 18.257812 50.039062 18.648438 C 50.039062 20.015625 50.039062 21.382812 50.039062 22.75 C 50.039062 24.019531 50.042969 25.289062 50.046875 26.558594 C 50.050781 27.652344 50.050781 28.746094 50.050781 29.839844 C 50.050781 30.492188 50.050781 31.144531 50.054688 31.792969 C 50.054688 32.40625 50.054688 33.023438 50.054688 33.636719 C 50.054688 33.859375 50.054688 34.082031 50.054688 34.304688 C 50.066406 36.089844 49.871094 37.800781 49.203125 39.476562 C 49.15625 39.601562 49.15625 39.601562 49.105469 39.730469 C 47.691406 43.269531 44.886719 46.21875 41.359375 47.789062 C 40.648438 48.082031 39.921875 48.320312 39.1875 48.542969 C 39.117188 48.5625 39.042969 48.585938 38.972656 48.605469 C 37.515625 49.023438 36.070312 49.03125 34.566406 49.03125 C 34.339844 49.03125 34.113281 49.03125 33.882812 49.03125 C 33.269531 49.03125 32.65625 49.03125 32.042969 49.03125 C 31.527344 49.03125 31.015625 49.03125 30.5 49.035156 C 29.285156 49.035156 28.074219 49.035156 26.859375 49.035156 C 25.609375 49.035156 24.363281 49.035156 23.113281 49.035156 C 22.039062 49.039062 20.964844 49.039062 19.886719 49.039062 C 19.246094 49.039062 18.605469 49.039062 17.964844 49.039062 C 17.363281 49.042969 16.757812 49.042969 16.15625 49.039062 C 15.9375 49.039062 15.71875 49.039062 15.496094 49.042969 C 11.507812 49.054688 7.882812 47.789062 4.933594 45.113281 C 4.832031 45.019531 4.726562 44.929688 4.621094 44.832031 C 2.042969 42.410156 0.363281 38.898438 0.207031 35.382812 C 0.203125 35.144531 0.203125 34.90625 0.203125 34.664062 C 0.203125 34.574219 0.203125 34.484375 0.203125 34.390625 C 0.203125 34.089844 0.203125 33.789062 0.203125 33.488281 C 0.199219 33.269531 0.199219 33.050781 0.199219 32.835938 C 0.199219 32.246094 0.199219 31.660156 0.199219 31.070312 C 0.195312 30.703125 0.195312 30.335938 0.195312 29.964844 C 0.195312 28.8125 0.195312 27.65625 0.191406 26.503906 C 0.191406 25.175781 0.191406 23.847656 0.1875 22.519531 C 0.183594 21.488281 0.183594 20.457031 0.183594 19.429688 C 0.183594 18.816406 0.183594 18.203125 0.179688 17.589844 C 0.179688 17.011719 0.179688 16.433594 0.179688 15.855469 C 0.179688 15.644531 0.179688 15.433594 0.179688 15.222656 C 0.167969 12.710938 0.585938 10.347656 1.753906 8.09375 C 1.84375 7.921875 1.84375 7.921875 1.933594 7.742188 C 2.605469 6.453125 3.492188 5.367188 4.496094 4.316406 C 4.5625 4.246094 4.628906 4.175781 4.695312 4.101562 C 7.125 1.554688 10.941406 -0.0195312 14.464844 -0.015625 Z M 14.464844 -0.015625 "/>
<path style=" stroke:none;fill-rule:nonzero;fill:rgb(97.254902%,98.039216%,99.215686%);fill-opacity:1;" d="M 17.003906 9.804688 C 17.097656 9.804688 17.191406 9.804688 17.285156 9.804688 C 17.441406 9.804688 17.441406 9.804688 17.597656 9.804688 C 17.707031 9.804688 17.8125 9.804688 17.925781 9.800781 C 18.285156 9.800781 18.644531 9.800781 19 9.800781 C 19.25 9.800781 19.5 9.796875 19.75 9.796875 C 20.269531 9.796875 20.792969 9.796875 21.316406 9.796875 C 21.984375 9.796875 22.65625 9.792969 23.324219 9.789062 C 23.839844 9.789062 24.351562 9.785156 24.867188 9.785156 C 25.113281 9.785156 25.359375 9.785156 25.605469 9.785156 C 25.953125 9.78125 26.296875 9.78125 26.644531 9.78125 C 26.746094 9.78125 26.847656 9.78125 26.953125 9.78125 C 27.597656 9.785156 28.082031 9.863281 28.578125 10.308594 C 29 10.839844 29.113281 11.195312 29.058594 11.871094 C 28.871094 12.460938 28.640625 12.769531 28.078125 13.074219 C 27.667969 13.242188 27.257812 13.21875 26.816406 13.210938 C 26.71875 13.207031 26.625 13.207031 26.523438 13.207031 C 26.21875 13.207031 25.914062 13.199219 25.609375 13.195312 C 25.402344 13.191406 25.195312 13.191406 24.988281 13.1875 C 24.480469 13.183594 23.972656 13.175781 23.464844 13.167969 C 23.464844 13.523438 23.464844 13.878906 23.464844 14.246094 C 23.617188 14.242188 23.765625 14.238281 23.921875 14.230469 C 24.121094 14.226562 24.320312 14.222656 24.519531 14.21875 C 24.667969 14.214844 24.667969 14.214844 24.820312 14.207031 C 25.449219 14.199219 25.824219 14.253906 26.316406 14.679688 C 26.703125 15.246094 26.605469 15.960938 26.535156 16.621094 C 26.402344 16.980469 26.316406 17.039062 25.988281 17.269531 C 25.683594 17.347656 25.429688 17.367188 25.109375 17.375 C 25.085938 17.898438 25.089844 18.378906 25.21875 18.886719 C 25.484375 19.121094 25.710938 19.21875 26.046875 19.332031 C 26.316406 19.425781 26.316406 19.425781 26.453125 19.59375 C 26.738281 19.828125 26.960938 19.789062 27.328125 19.792969 C 27.53125 19.792969 27.53125 19.792969 27.738281 19.796875 C 28.023438 19.796875 28.308594 19.796875 28.59375 19.796875 C 30.160156 19.820312 31.363281 20.246094 32.53125 21.277344 C 33.527344 22.300781 33.808594 23.613281 33.785156 24.980469 C 33.785156 25.089844 33.785156 25.199219 33.78125 25.3125 C 33.78125 25.582031 33.777344 25.851562 33.773438 26.117188 C 33.855469 26.132812 33.941406 26.144531 34.027344 26.160156 C 34.398438 26.246094 34.589844 26.410156 34.867188 26.660156 C 35.085938 27.085938 35.027344 27.597656 34.976562 28.0625 C 34.867188 28.347656 34.753906 28.480469 34.539062 28.710938 C 34.109375 28.851562 33.722656 28.824219 33.273438 28.820312 C 33.1875 28.820312 33.097656 28.816406 33.003906 28.816406 C 33.019531 28.910156 33.03125 29 33.046875 29.09375 C 33.199219 30.167969 33.300781 31.238281 33.378906 32.320312 C 33.402344 32.601562 33.425781 32.882812 33.445312 33.164062 C 33.527344 34.199219 33.574219 35.226562 33.550781 36.265625 C 33.707031 36.285156 33.707031 36.285156 33.867188 36.304688 C 34.210938 36.371094 34.210938 36.371094 34.449219 36.589844 C 34.917969 36.914062 35.398438 36.953125 35.964844 36.910156 C 36.300781 36.722656 36.300781 36.722656 36.511719 36.480469 C 36.585938 36.480469 36.65625 36.480469 36.734375 36.480469 C 36.757812 36.417969 36.78125 36.355469 36.808594 36.292969 C 37.132812 35.742188 37.671875 35.492188 38.265625 35.292969 C 38.574219 35.257812 38.832031 35.265625 39.144531 35.292969 C 39.363281 35.507812 39.363281 35.507812 39.390625 35.777344 C 39.363281 36.046875 39.363281 36.046875 39.144531 36.265625 C 38.898438 36.324219 38.898438 36.324219 38.609375 36.371094 C 38.238281 36.433594 37.933594 36.503906 37.609375 36.695312 C 37.582031 36.761719 37.550781 36.824219 37.519531 36.890625 C 37.347656 37.207031 37.105469 37.335938 36.804688 37.535156 C 36.601562 37.664062 36.601562 37.664062 36.472656 37.921875 C 36.292969 38.097656 36.292969 38.097656 36.089844 38.105469 C 35.917969 38.085938 35.75 38.0625 35.578125 38.035156 C 35.3125 37.992188 35.054688 37.976562 34.785156 37.964844 C 34.285156 37.914062 34.121094 37.695312 33.773438 37.34375 C 33.550781 37.289062 33.550781 37.289062 33.3125 37.277344 C 33.175781 37.261719 33.035156 37.25 32.894531 37.234375 C 32.648438 36.875 32.636719 36.707031 32.601562 36.28125 C 32.589844 36.152344 32.582031 36.023438 32.570312 35.890625 C 32.554688 35.679688 32.554688 35.679688 32.539062 35.464844 C 32.527344 35.320312 32.515625 35.171875 32.503906 35.027344 C 32.472656 34.640625 32.441406 34.253906 32.414062 33.871094 C 32.382812 33.480469 32.351562 33.09375 32.320312 32.707031 C 32.265625 32.003906 32.210938 31.304688 32.15625 30.601562 C 32.109375 30.007812 32.0625 29.414062 32.015625 28.816406 C 31.691406 28.816406 31.367188 28.816406 31.03125 28.816406 C 31.03125 28.882812 31.035156 28.949219 31.035156 29.019531 C 31.042969 29.898438 30.988281 30.769531 30.921875 31.644531 C 30.917969 31.71875 30.910156 31.796875 30.90625 31.875 C 30.875 32.273438 30.84375 32.671875 30.816406 33.074219 C 30.78125 33.484375 30.753906 33.898438 30.722656 34.3125 C 30.699219 34.628906 30.675781 34.949219 30.652344 35.265625 C 30.640625 35.417969 30.628906 35.570312 30.617188 35.722656 C 30.605469 35.933594 30.585938 36.144531 30.570312 36.359375 C 30.5625 36.476562 30.550781 36.597656 30.542969 36.722656 C 30.476562 37.042969 30.421875 37.15625 30.152344 37.34375 C 29.90625 37.378906 29.90625 37.378906 29.625 37.382812 C 29.214844 37.410156 29 37.449219 28.699219 37.734375 C 28.398438 37.992188 28.398438 37.992188 28.054688 38.011719 C 27.636719 37.839844 27.535156 37.613281 27.300781 37.234375 C 26.757812 36.726562 26.203125 36.535156 25.449219 36.550781 C 25.105469 36.605469 24.835938 36.75 24.535156 36.914062 C 24.34375 37.019531 24.34375 37.019531 24.011719 37.128906 C 23.867188 37.371094 23.777344 37.613281 23.683594 37.882812 C 23.394531 38.308594 23.113281 38.367188 22.636719 38.53125 C 22.285156 38.671875 22.082031 38.914062 21.820312 39.179688 C 21.527344 39.230469 21.527344 39.230469 21.273438 39.179688 C 21.050781 38.855469 21.050781 38.855469 21.066406 38.652344 C 21.328125 38.023438 21.769531 37.734375 22.367188 37.453125 C 22.511719 37.453125 22.65625 37.453125 22.808594 37.453125 C 22.832031 37.316406 22.832031 37.316406 22.855469 37.183594 C 23.152344 36.527344 23.75 36.023438 24.410156 35.726562 C 25.246094 35.472656 26.289062 35.46875 27.097656 35.804688 C 27.453125 35.992188 27.777344 36.203125 28.070312 36.480469 C 28.070312 36.550781 28.070312 36.621094 28.070312 36.695312 C 28.203125 36.644531 28.335938 36.589844 28.472656 36.535156 C 28.832031 36.390625 29.109375 36.367188 29.496094 36.371094 C 29.5 36.285156 29.503906 36.199219 29.511719 36.113281 C 29.609375 34.390625 29.726562 32.671875 29.886719 30.957031 C 29.894531 30.878906 29.898438 30.800781 29.90625 30.722656 C 30.03125 29.359375 30.03125 29.359375 30.152344 28.816406 C 30.066406 28.820312 29.976562 28.828125 29.886719 28.832031 C 28.917969 28.863281 28.917969 28.863281 28.488281 28.613281 C 28.101562 28.167969 28.136719 27.765625 28.140625 27.199219 C 28.179688 26.878906 28.21875 26.722656 28.414062 26.46875 C 28.726562 26.226562 28.726562 26.226562 29.386719 26.226562 C 29.386719 25.550781 29.386719 24.875 29.386719 24.175781 C 28.945312 24.160156 28.507812 24.144531 28.070312 24.136719 C 27.945312 24.128906 27.824219 24.125 27.695312 24.121094 C 26.824219 24.105469 26.410156 24.253906 25.765625 24.824219 C 25.414062 25.007812 25.050781 25.132812 24.671875 25.253906 C 24.578125 25.289062 24.484375 25.320312 24.390625 25.355469 C 22.535156 25.910156 20.320312 25.707031 18.613281 24.816406 C 18.355469 24.667969 18.121094 24.523438 17.894531 24.332031 C 17.605469 24.144531 17.425781 24.128906 17.082031 24.121094 C 16.976562 24.117188 16.867188 24.113281 16.757812 24.109375 C 16.589844 24.105469 16.589844 24.105469 16.421875 24.101562 C 16.308594 24.097656 16.195312 24.09375 16.078125 24.089844 C 15.796875 24.082031 15.519531 24.074219 15.242188 24.066406 C 15.246094 24.203125 15.25 24.335938 15.253906 24.472656 C 15.25 24.820312 15.226562 25.078125 15.0625 25.390625 C 15.03125 25.457031 14.996094 25.523438 14.960938 25.59375 C 14.722656 25.894531 14.507812 26.09375 14.144531 26.226562 C 13.640625 26.28125 13.144531 26.273438 12.636719 26.261719 C 12.5 26.257812 12.363281 26.257812 12.222656 26.257812 C 11.222656 26.246094 11.222656 26.246094 10.964844 26.117188 C 10.953125 25.808594 10.953125 25.808594 10.964844 25.472656 C 11.253906 25.1875 11.394531 25.226562 11.796875 25.21875 C 11.917969 25.214844 12.042969 25.210938 12.167969 25.207031 C 12.425781 25.203125 12.683594 25.199219 12.941406 25.195312 C 13.0625 25.191406 13.1875 25.1875 13.3125 25.183594 C 13.425781 25.183594 13.535156 25.179688 13.652344 25.179688 C 13.945312 25.171875 13.945312 25.171875 14.144531 24.933594 C 14.179688 24.671875 14.179688 24.671875 14.171875 24.367188 C 14.171875 24.246094 14.175781 24.128906 14.175781 24.007812 C 14.175781 23.878906 14.175781 23.75 14.175781 23.621094 C 14.175781 23.488281 14.175781 23.359375 14.175781 23.222656 C 14.175781 22.945312 14.175781 22.667969 14.171875 22.390625 C 14.171875 21.964844 14.171875 21.539062 14.175781 21.113281 C 14.175781 20.84375 14.175781 20.578125 14.175781 20.308594 C 14.175781 20.179688 14.175781 20.050781 14.175781 19.917969 C 14.175781 19.800781 14.171875 19.683594 14.171875 19.5625 C 14.171875 19.457031 14.171875 19.351562 14.171875 19.246094 C 14.167969 18.976562 14.167969 18.976562 13.925781 18.78125 C 13.640625 18.742188 13.640625 18.742188 13.3125 18.742188 C 13.191406 18.738281 13.066406 18.734375 12.941406 18.734375 C 12.816406 18.730469 12.6875 18.726562 12.554688 18.726562 C 12.300781 18.722656 12.050781 18.714844 11.796875 18.707031 C 11.683594 18.707031 11.574219 18.703125 11.457031 18.703125 C 11.183594 18.671875 11.183594 18.671875 10.964844 18.457031 C 10.9375 18.1875 10.9375 18.1875 10.964844 17.917969 C 11.359375 17.527344 11.980469 17.660156 12.515625 17.660156 C 12.636719 17.65625 12.757812 17.65625 12.882812 17.652344 C 13.648438 17.648438 14.15625 17.71875 14.800781 18.132812 C 15.167969 18.523438 15.261719 18.875 15.25 19.398438 C 15.25 19.527344 15.25 19.527344 15.246094 19.660156 C 15.246094 19.726562 15.242188 19.792969 15.242188 19.859375 C 15.644531 19.859375 16.046875 19.851562 16.449219 19.84375 C 16.617188 19.847656 16.617188 19.847656 16.789062 19.847656 C 17.492188 19.828125 17.910156 19.742188 18.429688 19.261719 C 18.640625 19.105469 18.640625 19.105469 19.296875 18.886719 C 19.296875 18.390625 19.296875 17.890625 19.296875 17.375 C 19.082031 17.375 18.863281 17.375 18.640625 17.375 C 18.410156 17.246094 18.410156 17.246094 18.222656 17.074219 C 18.125 16.988281 18.125 16.988281 18.027344 16.902344 C 17.664062 16.496094 17.714844 15.949219 17.714844 15.4375 C 17.789062 14.941406 18.03125 14.660156 18.421875 14.355469 C 18.691406 14.222656 18.863281 14.234375 19.164062 14.234375 C 19.269531 14.238281 19.371094 14.238281 19.476562 14.238281 C 19.585938 14.238281 19.695312 14.238281 19.804688 14.238281 C 19.96875 14.242188 19.96875 14.242188 20.136719 14.242188 C 20.40625 14.242188 20.671875 14.246094 20.941406 14.246094 C 20.941406 13.890625 20.941406 13.535156 20.941406 13.167969 C 20.746094 13.171875 20.746094 13.171875 20.542969 13.175781 C 20.050781 13.1875 19.558594 13.191406 19.0625 13.195312 C 18.851562 13.199219 18.640625 13.203125 18.425781 13.207031 C 18.121094 13.214844 17.8125 13.21875 17.503906 13.21875 C 17.410156 13.222656 17.316406 13.226562 17.21875 13.230469 C 16.636719 13.230469 16.292969 13.132812 15.832031 12.777344 C 15.453125 12.402344 15.335938 11.945312 15.304688 11.433594 C 15.371094 10.820312 15.613281 10.515625 16.078125 10.113281 C 16.417969 9.875 16.59375 9.808594 17.003906 9.804688 Z M 17.003906 9.804688 "/>
<path style=" stroke:none;fill-rule:nonzero;fill:rgb(13.72549%,34.117647%,74.901961%);fill-opacity:1;" d="M 20.285156 17.375 C 21.550781 17.375 22.816406 17.375 24.121094 17.375 C 24.105469 17.695312 24.089844 18.019531 24.074219 18.347656 C 24.074219 19.027344 24.074219 19.027344 24.390625 19.601562 C 24.730469 19.839844 25.089844 19.988281 25.476562 20.132812 C 25.878906 20.289062 25.878906 20.289062 26.070312 20.511719 C 26.417969 20.808594 26.660156 20.773438 27.113281 20.773438 C 27.226562 20.773438 27.226562 20.773438 27.34375 20.773438 C 27.671875 20.777344 28 20.777344 28.328125 20.777344 C 29.71875 20.773438 30.757812 20.910156 31.800781 21.886719 C 32.132812 22.253906 32.371094 22.644531 32.566406 23.097656 C 32.625 23.230469 32.625 23.230469 32.6875 23.371094 C 32.832031 23.921875 32.808594 24.460938 32.796875 25.027344 C 32.796875 25.140625 32.796875 25.257812 32.796875 25.375 C 32.792969 25.660156 32.789062 25.941406 32.785156 26.226562 C 31.988281 26.226562 31.191406 26.226562 30.371094 26.226562 C 30.34375 25.1875 30.34375 25.1875 30.339844 24.863281 C 30.316406 24.265625 30.242188 23.882812 29.824219 23.421875 C 29.261719 23.066406 28.589844 23.152344 27.945312 23.144531 C 27.816406 23.140625 27.6875 23.132812 27.554688 23.128906 C 26.703125 23.117188 26.230469 23.25 25.566406 23.773438 C 25.25 24.023438 24.957031 24.136719 24.574219 24.269531 C 24.457031 24.3125 24.339844 24.355469 24.21875 24.398438 C 22.746094 24.875 20.804688 24.753906 19.394531 24.132812 C 18.988281 23.921875 18.621094 23.71875 18.28125 23.414062 C 17.933594 23.171875 17.75 23.148438 17.328125 23.140625 C 17.144531 23.132812 17.144531 23.132812 16.960938 23.128906 C 16.832031 23.128906 16.707031 23.125 16.578125 23.125 C 16.449219 23.121094 16.320312 23.117188 16.1875 23.113281 C 15.871094 23.105469 15.558594 23.101562 15.242188 23.097656 C 15.242188 22.347656 15.242188 21.601562 15.242188 20.832031 C 15.425781 20.832031 15.613281 20.832031 15.800781 20.832031 C 16.050781 20.832031 16.296875 20.828125 16.542969 20.824219 C 16.664062 20.824219 16.785156 20.824219 16.910156 20.828125 C 17.726562 20.8125 18.203125 20.664062 18.835938 20.152344 C 19.160156 19.90625 19.5 19.769531 19.878906 19.625 C 20.085938 19.546875 20.085938 19.546875 20.175781 19.320312 C 20.191406 19.171875 20.203125 19.023438 20.210938 18.875 C 20.214844 18.796875 20.21875 18.714844 20.222656 18.636719 C 20.226562 18.535156 20.230469 18.4375 20.238281 18.335938 C 20.253906 18.019531 20.269531 17.703125 20.285156 17.375 Z M 20.285156 17.375 "/>
<path style=" stroke:none;fill-rule:nonzero;fill:rgb(14.117647%,34.509804%,74.901961%);fill-opacity:1;" d="M 19.484375 15.203125 C 19.617188 15.203125 19.75 15.203125 19.890625 15.203125 C 20.035156 15.203125 20.183594 15.203125 20.328125 15.203125 C 20.480469 15.203125 20.628906 15.203125 20.777344 15.203125 C 21.09375 15.203125 21.40625 15.203125 21.71875 15.203125 C 22.121094 15.203125 22.527344 15.203125 22.929688 15.203125 C 23.238281 15.203125 23.546875 15.203125 23.855469 15.203125 C 24.003906 15.203125 24.152344 15.203125 24.300781 15.203125 C 24.507812 15.203125 24.714844 15.203125 24.921875 15.203125 C 25.101562 15.203125 25.101562 15.203125 25.28125 15.203125 C 25.546875 15.21875 25.546875 15.21875 25.65625 15.324219 C 25.667969 15.488281 25.671875 15.648438 25.671875 15.8125 C 25.671875 15.945312 25.671875 15.945312 25.671875 16.078125 C 25.65625 16.296875 25.65625 16.296875 25.546875 16.40625 C 25.339844 16.414062 25.132812 16.417969 24.921875 16.417969 C 24.789062 16.417969 24.65625 16.421875 24.519531 16.421875 C 24.371094 16.421875 24.226562 16.417969 24.078125 16.417969 C 23.929688 16.417969 23.777344 16.417969 23.628906 16.421875 C 23.316406 16.421875 23.003906 16.417969 22.6875 16.417969 C 22.285156 16.417969 21.882812 16.417969 21.480469 16.417969 C 21.171875 16.421875 20.863281 16.421875 20.550781 16.417969 C 20.402344 16.417969 20.253906 16.417969 20.105469 16.421875 C 19.898438 16.421875 19.691406 16.417969 19.484375 16.417969 C 19.308594 16.417969 19.308594 16.417969 19.125 16.417969 C 18.859375 16.40625 18.859375 16.40625 18.75 16.296875 C 18.738281 16.136719 18.734375 15.972656 18.734375 15.8125 C 18.734375 15.722656 18.734375 15.636719 18.734375 15.546875 C 18.765625 15.089844 19.089844 15.203125 19.484375 15.203125 Z M 19.484375 15.203125 "/>
<path style=" stroke:none;fill-rule:nonzero;fill:rgb(15.294118%,35.686275%,75.294118%);fill-opacity:1;" d="M 22.699219 10.792969 C 23.601562 10.792969 24.507812 10.792969 25.4375 10.792969 C 25.4375 11.292969 25.4375 11.789062 25.4375 12.304688 C 24.535156 12.304688 23.628906 12.304688 22.699219 12.304688 C 22.699219 11.804688 22.699219 11.308594 22.699219 10.792969 Z M 22.699219 10.792969 "/>
<path style=" stroke:none;fill-rule:nonzero;fill:rgb(15.294118%,35.686275%,75.294118%);fill-opacity:1;" d="M 18.96875 10.792969 C 19.875 10.792969 20.777344 10.792969 21.710938 10.792969 C 21.710938 11.292969 21.710938 11.789062 21.710938 12.304688 C 20.804688 12.304688 19.902344 12.304688 18.96875 12.304688 C 18.96875 11.804688 18.96875 11.308594 18.96875 10.792969 Z M 18.96875 10.792969 "/>
<path style=" stroke:none;fill-rule:nonzero;fill:rgb(17.254902%,37.254902%,76.078431%);fill-opacity:1;" d="M 29.167969 27.089844 C 30.757812 27.089844 32.351562 27.089844 33.992188 27.089844 C 33.992188 27.339844 33.992188 27.589844 33.992188 27.847656 C 32.398438 27.847656 30.808594 27.847656 29.167969 27.847656 C 29.167969 27.597656 29.167969 27.347656 29.167969 27.089844 Z M 29.167969 27.089844 "/>
<path style=" stroke:none;fill-rule:nonzero;fill:rgb(15.686275%,36.078431%,75.686275%);fill-opacity:1;" d="M 17.984375 10.792969 C 17.984375 11.292969 17.984375 11.789062 17.984375 12.304688 C 16.859375 12.371094 16.859375 12.371094 16.480469 12.074219 C 16.316406 11.71875 16.277344 11.503906 16.335938 11.117188 C 16.710938 10.582031 17.398438 10.773438 17.984375 10.792969 Z M 17.984375 10.792969 "/>
<path style=" stroke:none;fill-rule:nonzero;fill:rgb(16.078431%,36.078431%,75.686275%);fill-opacity:1;" d="M 26.425781 10.792969 C 26.636719 10.785156 26.847656 10.773438 27.0625 10.765625 C 27.238281 10.757812 27.238281 10.757812 27.421875 10.75 C 27.742188 10.792969 27.742188 10.792969 27.949219 10.988281 C 28.132812 11.351562 28.066406 11.59375 27.960938 11.980469 C 27.71875 12.214844 27.578125 12.296875 27.238281 12.335938 C 27.140625 12.332031 27.046875 12.328125 26.945312 12.324219 C 26.773438 12.316406 26.601562 12.3125 26.425781 12.304688 C 26.425781 11.804688 26.425781 11.308594 26.425781 10.792969 Z M 26.425781 10.792969 "/>
<path style=" stroke:none;fill-rule:nonzero;fill:rgb(13.333333%,34.117647%,74.901961%);fill-opacity:1;" d="M 21.929688 13.273438 C 22.109375 13.273438 22.292969 13.273438 22.476562 13.273438 C 22.476562 13.597656 22.476562 13.917969 22.476562 14.246094 C 22.296875 14.246094 22.117188 14.246094 21.929688 14.246094 C 21.929688 13.925781 21.929688 13.605469 21.929688 13.273438 Z M 21.929688 13.273438 "/>
</g>
</svg>
